<svg width="330" height="45" viewBox="0 0 330 45" fill="none" xmlns="http://www.w3.org/2000/svg">
<path d="M29.6975 0.948893L47.6132 1.44388C49.4739 1.49529 50.9402 3.0373 50.8885 4.88797L50.391 22.7091C50.3895 22.7611 50.3856 22.8123 50.3796 22.8628C50.3672 22.9678 50.352 23.0725 50.349 23.1778L50.3395 23.5139C50.001 35.6361 39.8474 45.1903 27.6608 44.8536C24.4331 44.7645 21.3865 43.9904 18.6579 42.6754C17.5436 42.1383 17.5243 40.6324 18.5413 39.9293C19.6373 39.1717 20.7025 38.4081 21.7456 37.6332C22.2303 37.2731 22.8661 37.1946 23.4402 37.384C24.8297 37.8424 26.3093 38.109 27.848 38.1514C36.3133 38.3853 43.3666 31.7484 43.6018 23.3277L43.7857 16.7436C43.7098 15.3271 41.9591 14.6236 40.9158 15.6542L39.9147 16.643C27.7419 29.0648 20.0465 35.8408 5.8201 43.887C4.20206 44.8022 2.14457 44.2393 1.22451 42.6298C0.304452 41.0203 0.87038 38.9736 2.48842 38.0584C16.0887 30.3666 23.2867 24.0275 35.4781 11.5644L36.2966 10.7127C37.3003 9.66806 36.5937 7.93425 35.142 7.87966L30.6566 7.71099L28.6994 7.65683C20.2339 7.42291 13.1806 14.0599 12.9454 22.4805C12.9131 23.6456 13.0127 24.7837 13.231 25.8806C13.3688 26.5731 13.1291 27.2996 12.5546 27.7144C11.5585 28.4336 10.5398 29.1416 9.48813 29.8448C8.59079 30.4449 7.36847 30.0559 7.0675 29.0228C6.4467 26.8921 6.14251 24.6308 6.20768 22.2944C6.54638 10.1721 16.6998 0.617994 28.8866 0.954693L29.2298 0.964182C29.3346 0.967082 29.4394 0.957956 29.5443 0.951495C29.5949 0.94836 29.6461 0.947464 29.6975 0.948893Z" fill="#ECEEEC"/>
<path d="M87.215 38.6316C84.8885 38.6301 82.8608 38.1911 81.1322 37.3142C79.4035 36.4063 78.0524 35.0919 77.0789 33.3711C76.1053 31.6191 75.6193 29.4766 75.621 26.9433L75.6266 18.4523C75.629 14.6367 76.7471 11.7445 78.9806 9.77575C81.2456 7.7756 84.3432 6.77681 88.2732 6.77936C91.0713 6.78107 93.4291 7.23611 95.3464 8.14428C97.2637 9.02111 98.662 10.2417 99.5413 11.806C100.452 13.3391 100.781 15.1062 100.528 17.1076C100.465 17.4829 100.261 17.6704 99.9148 17.6701L95.0572 17.6202C94.6799 17.62 94.5072 17.4322 94.5389 17.0569C94.6026 15.9623 94.4143 15.0397 93.9747 14.2889C93.535 13.5379 92.8437 12.9589 91.9009 12.5516C90.9892 12.1446 89.8104 11.9405 88.3641 11.9397C86.1634 11.9382 84.4808 12.4845 83.3168 13.5784C82.1843 14.6723 81.6173 16.3607 81.6158 18.6438L81.6107 26.7595C81.6092 29.0738 82.174 30.7786 83.305 31.874C84.4362 32.938 86.1179 33.4707 88.3501 33.4722C90.4882 33.4734 92.1078 32.9898 93.2087 32.0209C94.3412 31.0208 94.908 29.5983 94.9093 27.753L94.9102 26.2987L88.685 26.2949C88.3077 26.2947 88.1192 26.1068 88.1195 25.7315L88.1216 22.4946C88.1218 22.1193 88.3105 21.9319 88.6877 21.9321L100.053 21.9393C100.242 21.9393 100.384 21.9865 100.478 22.0803C100.572 22.1741 100.619 22.315 100.619 22.5027L100.614 30.9937C100.613 32.0569 100.628 33.1672 100.659 34.3245C100.721 35.4503 100.83 36.4982 100.987 37.4678C101.018 37.6554 100.986 37.8117 100.892 37.9367C100.798 38.0305 100.656 38.0774 100.468 38.0772L96.5533 38.0746C96.3959 38.0746 96.2703 38.0433 96.176 37.9806C96.0817 37.8868 96.0032 37.7616 95.9404 37.6053C95.8778 37.1987 95.8152 36.7295 95.7526 36.1977C95.7215 35.6661 95.6905 35.1499 95.6594 34.6496L95.5651 34.6494C95.0615 35.4623 94.4165 36.1813 93.63 36.8063C92.8437 37.4 91.9159 37.8529 90.8466 38.1648C89.7776 38.477 88.5671 38.6325 87.215 38.6316ZM107.454 38.0817C107.076 38.0815 106.888 37.8936 106.888 37.5183L106.899 20.7708C106.899 19.8326 106.869 18.9412 106.806 18.0968C106.775 17.2524 106.713 16.408 106.619 15.5636C106.557 15.157 106.745 14.9537 107.186 14.954L111.383 14.9567C111.54 14.9567 111.666 14.9881 111.76 15.0508C111.886 15.1135 111.964 15.2386 111.996 15.4263C112.121 15.9892 112.215 16.6304 112.277 17.3499C112.34 18.0378 112.387 18.679 112.418 19.2732L112.793 21.9943L112.783 37.5221C112.783 37.8974 112.594 38.0851 112.217 38.0847L107.454 38.0817ZM112.273 24.2459L111.993 19.2261C112.623 18.3194 113.346 17.5068 114.164 16.788C115.013 16.038 115.863 15.46 116.712 15.054C117.561 14.6166 118.347 14.3983 119.07 14.3987C119.605 14.3991 120.029 14.4462 120.344 14.5403C120.532 14.603 120.642 14.6968 120.674 14.822C120.736 14.9158 120.784 15.041 120.815 15.1973C120.846 15.9478 120.845 16.7767 120.813 17.6836C120.813 18.5593 120.765 19.4037 120.67 20.2168C120.638 20.4045 120.56 20.545 120.434 20.6388C120.34 20.7013 120.182 20.7168 119.962 20.6855C119.774 20.6539 119.538 20.6226 119.255 20.591C118.972 20.5597 118.689 20.5439 118.406 20.5437C117.714 20.5433 117.007 20.6836 116.284 20.9646C115.56 21.2455 114.853 21.6672 114.161 22.2298C113.5 22.7611 112.871 23.433 112.273 24.2459ZM134.018 38.6617C130.654 38.6595 128.045 37.8603 126.191 36.264C124.368 34.668 123.458 32.2593 123.46 29.0379L123.463 24.0184C123.465 20.8284 124.379 18.4365 126.203 16.8426C128.028 15.2175 130.638 14.4062 134.034 14.4083C137.398 14.4104 139.991 15.2252 141.814 16.8526C143.636 18.4489 144.546 20.8418 144.544 24.0318L144.541 29.0514C144.539 32.2727 143.626 34.6803 141.801 36.2741C139.976 37.868 137.382 38.6638 134.018 38.6617ZM134.021 33.6421C135.656 33.6432 136.835 33.2374 137.559 32.4245C138.314 31.5808 138.692 30.2674 138.693 28.4848L138.696 24.5911C138.697 22.8085 138.321 21.5103 137.567 20.6966C136.844 19.8518 135.665 19.4289 134.03 19.4278C132.395 19.4268 131.2 19.8481 130.445 20.6921C129.722 21.5048 129.359 22.8025 129.358 24.5852L129.356 28.4788C129.354 30.2615 129.715 31.5752 130.438 32.4201C131.192 33.2338 132.386 33.641 134.021 33.6421ZM155.336 38.1124C155.021 38.1122 154.817 37.9556 154.723 37.6428L147.757 15.6367C147.632 15.1987 147.789 14.98 148.229 14.9802L153.228 14.9834C153.543 14.9836 153.747 15.1559 153.841 15.4998L156.758 26.6198C157.009 27.6521 157.244 28.6842 157.463 29.7164C157.683 30.7174 157.902 31.7183 158.121 32.7192L158.263 32.7194C158.547 31.7501 158.83 30.7807 159.114 29.8113C159.429 28.8108 159.713 27.8259 159.965 26.8565L161.855 20.7122L160.679 16.1142C160.585 15.7075 160.742 15.5043 161.151 15.5045L165.537 15.5073C165.883 15.5075 166.103 15.664 166.197 15.9768L168.878 26.7683C169.097 27.7692 169.317 28.7701 169.536 29.771C169.756 30.7408 169.991 31.726 170.242 32.7269L170.383 32.7271C170.573 31.6951 170.778 30.6632 170.998 29.6314C171.251 28.5993 171.503 27.5832 171.755 26.5825L174.686 15.5133C174.781 15.1693 174.985 14.9975 175.3 14.9977L180.299 15.0009C180.739 15.0011 180.896 15.2201 180.77 15.6578L173.776 37.655C173.713 37.8113 173.634 37.9365 173.54 38.0301C173.445 38.0925 173.304 38.1239 173.115 38.1237L167.739 38.1203C167.424 38.1201 167.22 37.9635 167.126 37.6507L165.997 33.8033C165.683 32.771 165.401 31.7074 165.15 30.6127C164.899 29.4866 164.648 28.2042 164.398 26.7655L164.256 26.7653C164.004 28.2038 163.736 29.4704 163.452 30.5647C163.169 31.6592 162.869 32.7066 162.554 33.7071L161.325 37.6471C161.231 37.9597 161.026 38.116 160.712 38.1158L155.336 38.1124ZM194.384 38.7003C192.497 38.699 190.988 38.4167 189.856 37.8529C188.756 37.2893 187.955 36.4131 187.453 35.2243C186.982 34.0044 186.747 32.4405 186.748 30.5327L186.755 19.8837L183.313 19.8816C182.935 19.8812 182.747 19.6935 182.747 19.3182L182.749 15.5653C182.75 15.19 182.938 15.0024 183.316 15.0028L186.947 15.0051L187.611 9.37593C187.674 9.03198 187.879 8.86011 188.224 8.86033L192.045 8.86289C192.422 8.8631 192.611 9.05075 192.611 9.42604L192.654 15.0088L198.973 15.0128C199.351 15.013 199.539 15.2007 199.539 15.576L199.537 19.3289C199.535 19.7042 199.346 19.8918 198.969 19.8916L192.65 19.8876L192.643 30.2082C192.643 31.4279 192.862 32.3192 193.301 32.8826C193.743 33.4144 194.497 33.6807 195.565 33.6813C196.131 33.6818 196.697 33.6353 197.263 33.5417C197.829 33.4171 198.38 33.2455 198.913 33.0267C199.102 32.9644 199.261 32.98 199.385 33.074C199.511 33.1367 199.574 33.2617 199.574 33.4493L199.571 37.2961C199.571 37.6089 199.415 37.8121 199.1 37.9057C198.502 38.1557 197.794 38.3427 196.978 38.4674C196.159 38.6233 195.295 38.7009 194.384 38.7003ZM218.976 38.1531C218.599 38.1527 218.41 37.965 218.41 37.5897L218.421 23.1878C218.421 21.9681 218.17 21.061 217.666 20.4665C217.164 19.8407 216.378 19.5274 215.31 19.5268C214.24 19.5259 213.156 19.8537 212.054 20.5098C210.984 21.1659 209.9 22.0877 208.8 23.2755L208.519 19.0532C209.4 18.1469 210.296 17.3499 211.209 16.6624C212.12 15.9749 213.081 15.444 214.086 15.0693C215.124 14.6633 216.256 14.4607 217.482 14.4616C219.745 14.4631 221.443 15.1053 222.575 16.3882C223.737 17.6401 224.318 19.5795 224.316 22.2065L224.305 37.5936C224.305 37.9689 224.116 38.1563 223.739 38.1561L218.976 38.1531ZM204.262 38.1435C203.884 38.1433 203.696 37.9556 203.696 37.5803L203.717 6.6655C203.717 6.2902 203.906 6.10256 204.283 6.10298L209.046 6.10597C209.424 6.10618 209.612 6.29383 209.612 6.66912L209.591 37.584C209.591 37.9593 209.402 38.1469 209.025 38.1467L204.262 38.1435ZM230.464 38.1604C230.275 38.1604 230.134 38.1132 230.039 38.0194C229.945 37.8942 229.898 37.7535 229.898 37.597L230.53 7.99609C230.53 7.62079 230.719 7.43336 231.096 7.43357L237.416 7.43762C237.699 7.43784 237.904 7.57857 238.029 7.86025L245.8 24.7065L253.497 7.87006C253.656 7.58881 253.875 7.44807 254.158 7.44828L260.477 7.45233C260.824 7.45255 260.996 7.64041 260.996 8.0157L261.637 37.6175C261.637 37.7738 261.59 37.9145 261.495 38.0394C261.401 38.1333 261.26 38.18 261.071 38.18L256.355 38.177C255.978 38.1768 255.789 37.9889 255.789 37.6136L255.422 23.1646C255.39 21.9135 255.407 20.6469 255.472 19.3647C255.534 18.0512 255.583 16.7846 255.615 15.5649H255.474C254.97 16.753 254.434 17.9881 253.868 19.2698C253.3 20.5205 252.719 21.7555 252.121 22.9748L246.501 34.5115C246.374 34.7616 246.155 34.8865 245.84 34.8863H245.652C245.337 34.8861 245.118 34.7607 244.991 34.5106L239.388 22.826C238.79 21.6372 238.209 20.417 237.645 19.1658C237.111 17.9143 236.592 16.7099 236.091 15.5525H235.949C236.012 16.7409 236.059 17.9919 236.089 19.3054C236.151 20.5876 236.166 21.8387 236.134 23.0584L235.746 37.6008C235.746 37.9761 235.557 38.1636 235.18 38.1633L230.464 38.1604ZM280.975 38.1928C280.786 38.1926 280.645 38.1456 280.553 38.0516C280.488 37.9264 280.426 37.7701 280.364 37.5825C280.3 37.2383 280.222 36.7067 280.128 35.9873C280.034 35.2367 279.957 34.5172 279.895 33.8291L279.517 31.9055L279.524 22.5232C279.526 21.241 279.275 20.3339 278.771 19.8019C278.267 19.2698 277.374 19.0035 276.083 19.0027C273.789 19.0012 272.655 19.8449 272.685 21.5338C272.718 21.909 272.544 22.0965 272.167 22.0963L267.686 22.0935C267.341 22.0933 267.138 21.8272 267.075 21.2956C266.887 19.1374 267.611 17.4648 269.247 16.2773C270.883 15.09 273.241 14.4972 276.323 14.4993C279.466 14.5013 281.762 15.1595 283.206 16.4739C284.651 17.7885 285.374 19.853 285.372 22.6677L285.365 32.3316C285.365 33.3323 285.38 34.2705 285.41 35.1463C285.472 36.022 285.552 36.8351 285.646 37.5859C285.708 37.9923 285.535 38.1955 285.125 38.1953L280.975 38.1928ZM271.967 38.75C270.081 38.7487 268.619 38.1849 267.583 37.0581C266.578 35.9316 266.076 34.3208 266.076 32.2254C266.079 30.599 266.394 29.2701 267.022 28.2385C267.652 27.2069 268.675 26.41 270.089 25.8479C271.536 25.2858 273.455 24.9118 275.845 24.7257L280.231 24.3062L280.182 27.7308L276.409 28.1037C274.679 28.259 273.468 28.5865 272.775 29.0865C272.115 29.5866 271.785 30.415 271.783 31.5722C271.783 32.4791 271.972 33.1517 272.349 33.5899C272.726 33.9967 273.275 34.2001 273.999 34.2008C274.943 34.2012 275.886 33.9204 276.829 33.3581C277.772 32.7644 278.951 31.7177 280.368 30.2173L280.602 34.0172C279.657 35.0175 278.728 35.877 277.817 36.5956C276.936 37.2831 276.025 37.8143 275.08 38.1889C274.137 38.5636 273.099 38.7506 271.967 38.75ZM300.54 38.7681C298.654 38.767 297.145 38.4845 296.013 37.9209C294.913 37.3571 294.113 36.4809 293.61 35.2921C293.14 34.0722 292.904 32.5083 292.907 30.6005L292.913 19.9515L289.47 19.9494C289.093 19.9492 288.904 19.7613 288.904 19.386L288.906 15.6331C288.906 15.2578 289.095 15.0704 289.472 15.0706L293.104 15.0729L293.768 9.44395C293.83 9.1 294.036 8.92814 294.381 8.92835L298.201 8.9307C298.579 8.93091 298.767 9.11877 298.767 9.49406L298.81 15.0766L305.13 15.0806C305.507 15.0808 305.696 15.2687 305.696 15.644L305.694 19.3969C305.694 19.7722 305.505 19.9597 305.128 19.9594L298.808 19.9554L298.802 30.276C298.799 31.4957 299.02 32.3872 299.46 32.9504C299.899 33.4824 300.654 33.7487 301.723 33.7494C302.289 33.7498 302.855 33.7031 303.421 33.6097C303.987 33.485 304.538 33.3133 305.072 33.0947C305.26 33.0323 305.417 33.048 305.543 33.1419C305.67 33.2045 305.732 33.3297 305.732 33.5174L305.73 37.3641C305.73 37.6769 305.571 37.8799 305.256 37.9736C304.66 38.2235 303.953 38.4107 303.134 38.5352C302.317 38.6911 301.453 38.7687 300.54 38.7681ZM319.293 38.7802C315.835 38.7779 313.241 38.0256 311.514 36.5233C309.816 35.0211 308.969 32.7845 308.971 29.8135L308.973 24.0902C308.975 20.9627 309.826 18.5864 311.526 16.9611C313.224 15.3361 315.803 14.5245 319.261 14.5266C322.626 14.529 325.171 15.3124 326.901 16.8771C328.629 18.4421 329.49 20.7569 329.488 23.8218L329.486 27.4809C329.486 27.8562 329.297 28.0438 328.92 28.0434L314.772 28.0344V29.4418C314.77 31.0681 315.132 32.2723 315.854 33.0546C316.577 33.8057 317.739 34.1818 319.342 34.1829C320.568 34.1835 321.529 33.9965 322.219 33.6216C322.911 33.2156 323.259 32.6216 323.259 31.8396C323.259 31.4643 323.465 31.2769 323.872 31.2771L328.446 31.2801C328.794 31.2803 328.98 31.4682 329.012 31.8435C329.074 34.0952 328.288 35.8148 326.65 37.0023C325.014 38.1896 322.562 38.7821 319.293 38.7802ZM314.774 24.2346L323.735 24.2403V24.0058C323.737 22.317 323.377 21.0813 322.654 20.2991C321.93 19.5168 320.815 19.125 319.306 19.1242C317.764 19.1231 316.618 19.5289 315.863 20.3416C315.139 21.1231 314.776 22.3426 314.774 24V24.2346Z" fill="#ECEEEC"/>
</svg>
